<?xml version="1.0" standalone="no"?>
<!DOCTYPE svg PUBLIC "-//W3C//DTD SVG 20010904//EN"
 "http://www.w3.org/TR/2001/REC-SVG-20010904/DTD/svg10.dtd">
<svg version="1.0" xmlns="http://www.w3.org/2000/svg"
 width="512.000000pt" height="512.000000pt" viewBox="0 0 512.000000 512.000000"
 preserveAspectRatio="xMidYMid meet">
<metadata>
Created by potrace 1.11, written by Peter Selinger 2001-2013
</metadata>
<g transform="translate(0.000000,512.000000) scale(0.100000,-0.100000)"
fill="#000000" stroke="none">
<path d="M0 2560 l0 -2560 2560 0 2560 0 0 2560 0 2560 -2560 0 -2560 0 0
-2560z m1958 1853 l2 -323 -390 0 -390 0 0 -555 0 -555 335 0 335 0 0 -330 0
-330 -330 0 -330 0 0 -970 0 -970 -395 0 -395 0 -1 908 c-1 499 -3 945 -4 992
-3 80 -9 2436 -6 2453 0 4 353 6 784 5 l782 -3 3 -322z m1384 -230 c1 -307 2
-567 3 -578 1 -11 3 -158 4 -327 l1 -308 290 0 291 0 -1 883 -1 882 387 3
c213 1 391 -1 395 -5 4 -5 10 -986 14 -2180 l7 -2173 -396 0 -396 0 -2 883
c-2 485 -3 915 -3 955 l0 72 -294 0 -294 0 4 -952 4 -953 -393 -3 c-309 -2
-393 0 -396 10 -3 7 -7 988 -11 2181 l-6 2167 395 0 396 0 2 -557z"/>
</g>
</svg>
